{
  "accessors": [
    {
      "bufferView": 2,
      "componentType": 5126,
      "count": 495,
      "max": [
        1.0,
        1.1909929513931274,
        0.18047599494457245
      ],
      "min": [
        -1.0,
        0.2863759994506836,
        -0.18035100400447845
      ],
      "type": "VEC3"
    },
    {
      "bufferView": 2,
      "byteOffset": 5940,
      "componentType": 5126,
      "count": 495,
      "max": [
        1.0,
        1.0,
        1.0
      ],
      "min": [
        -1.0,
        -1.0,
        -1.0
      ],
      "type": "VEC3"
    },
    {
      "bufferView": 3,
      "componentType": 5126,
      "count": 495,
      "max": [
        1.0,
        1.0,
        0.48032137751579285,
        1.0
      ],
      "min": [
        -1.0,
        -0.811427652835846,
        -0.48196226358413696,
        1.0
      ],
      "type": "VEC4"
    },
    {
      "bufferView": 1,
      "componentType": 5126,
      "count": 495,
      "max": [
        0.5469679832458496,
        0.9919570088386536
      ],
      "min": [
        0.009514999575912952,
        0.5574020147323608
      ],
      "type": "VEC2"
    },
    {
      "bufferView": 0,
      "componentType": 5125,
      "count": 948,
      "type": "SCALAR"
    },
    {
      "bufferView": 2,
      "byteOffset": 11880,
      "componentType": 5126,
      "count": 24,
      "max": [
        0.9978860020637512,
        1.16655695438385,
        0.12948599457740784
      ],
      "min": [
        -0.9978860020637512,
        0.252005010843277,
        -0.12948599457740784
      ],
      "type": "VEC3"
    },
    {
      "bufferView": 2,
      "byteOffset": 12168,
      "componentType": 5126,
      "count": 24,
      "max": [
        0.6640551686286926,
        -0.5613649487495422,
        0.6600872278213501
      ],
      "min": [
        -0.6640545725822449,
        -0.7468186020851135,
        -0.6600877642631531
      ],
      "type": "VEC3"
    },
    {
      "bufferView": 3,
      "byteOffset": 7920,
      "componentType": 5126,
      "count": 24,
      "max": [
        0.7472875714302063,
        0.665634274482727,
        0.0020660965237766504,
        1.0
      ],
      "min": [
        -0.7472886443138123,
        0.6644994616508484,
        -0.0020610871724784374,
        -1.0
      ],
      "type": "VEC4"
    },
    {
      "bufferView": 1,
      "byteOffset": 3960,
      "componentType": 5126,
      "count": 24,
      "max": [
        0.6158760190010071,
        0.9569569826126099
      ],
      "min": [
        0.6021209955215454,
        0.6228899955749512
      ],
      "type": "VEC2"
    },
    {
      "bufferView": 0,
      "byteOffset": 3792,
      "componentType": 5125,
      "count": 48,
      "type": "SCALAR"
    },
    {
      "bufferView": 2,
      "byteOffset": 12456,
      "componentType": 5126,
      "count": 84,
      "max": [
        1.0000660419464111,
        0.9024050235748291,
        0.1883459985256195
      ],
      "min": [
        -1.0000660419464111,
        0.5802080035209656,
        -0.18878300487995148
      ],
      "type": "VEC3"
    },
    {
      "bufferView": 2,
      "byteOffset": 13464,
      "componentType": 5126,
      "count": 84,
      "max": [
        0.21743996441364288,
        1.0,
        0.8660231232643127
      ],
      "min": [
        -0.21743996441364288,
        -1.0,
        -0.8660231232643127
      ],
      "type": "VEC3"
    },
    {
      "bufferView": 3,
      "byteOffset": 8304,
      "componentType": 5126,
      "count": 84,
      "max": [
        0.9999930262565613,
        0.30830618739128113,
        0.3848632574081421,
        1.0
      ],
      "min": [
        0.8813726902008057,
        -0.39125484228134155,
        -0.38488316535949707,
        1.0
      ],
      "type": "VEC4"
    },
    {
      "bufferView": 1,
      "byteOffset": 4152,
      "componentType": 5126,
      "count": 84,
      "max": [
        0.5540940165519714,
        0.5485169887542725
      ],
      "min": [
        0.01423100009560585,
        0.49437201023101807
      ],
      "type": "VEC2"
    },
    {
      "bufferView": 0,
      "byteOffset": 3984,
      "componentType": 5125,
      "count": 360,
      "type": "SCALAR"
    },
    {
      "bufferView": 2,
      "byteOffset": 14472,
      "componentType": 5126,
      "count": 256,
      "max": [
        1.0220069885253906,
        1.682178020477295,
        0.25
      ],
      "min": [
        -1.0220069885253906,
        0.0,
        -0.25
      ],
      "type": "VEC3"
    },
    {
      "bufferView": 2,
      "byteOffset": 17544,
      "componentType": 5126,
      "count": 256,
      "max": [
        1.0,
        1.0,
        1.0
      ],
      "min": [
        -1.0,
        -1.0,
        -1.0
      ],
      "type": "VEC3"
    },
    {
      "bufferView": 3,
      "byteOffset": 9648,
      "componentType": 5126,
      "count": 256,
      "max": [
        1.0,
        0.6093530654907227,
        1.0,
        1.0
      ],
      "min": [
        -1.0,
        -0.5911899209022522,
        -1.0,
        -1.0
      ],
      "type": "VEC4"
    },
    {
      "bufferView": 1,
      "byteOffset": 4824,
      "componentType": 5126,
      "count": 256,
      "max": [
        0.9866819977760315,
        0.9927639961242676
      ],
      "min": [
        0.6659510135650635,
        0.4947969913482666
      ],
      "type": "VEC2"
    },
    {
      "bufferView": 0,
      "byteOffset": 5424,
      "componentType": 5125,
      "count": 768,
      "type": "SCALAR"
    },
    {
      "bufferView": 2,
      "byteOffset": 20616,
      "componentType": 5126,
      "count": 435,
      "max": [
        0.8680530190467834,
        0.29538899660110474,
        0.12412799894809723
      ],
      "min": [
        -0.8680530190467834,
        -1.009924054145813,
        -0.12412799894809723
      ],
      "type": "VEC3"
    },
    {
      "bufferView": 2,
      "byteOffset": 25836,
      "componentType": 5126,
      "count": 435,
      "max": [
        0.9509446024894714,
        0.9808997511863708,
        0.9998821020126343
      ],
      "min": [
        -0.9509446024894714,
        -1.0,
        -0.9998821020126343
      ],
      "type": "VEC3"
    },
    {
      "bufferView": 3,
      "byteOffset": 13744,
      "componentType": 5126,
      "count": 435,
      "max": [
        0.9999989867210388,
        0.9998820424079895,
        0.980603039264679,
        1.0
      ],
      "min": [
        -0.9999924898147583,
        -0.7883619666099548,
        -0.9806035757064819,
        1.0
      ],
      "type": "VEC4"
    },
    {
      "bufferView": 1,
      "byteOffset": 6872,
      "componentType": 5126,
      "count": 435,
      "max": [
        0.9878810048103333,
        0.4797849953174591
      ],
      "min": [
        0.004162999801337719,
        0.010397999547421932
      ],
      "type": "VEC2"
    },
    {
      "bufferView": 0,
      "byteOffset": 8496,
      "componentType": 5125,
      "count": 1950,
      "type": "SCALAR"
    }
  ],
  "asset": {
    "extras": {
      "author": "Harry Bond (https://sketchfab.com/hbond)",
      "license": "CC-BY-4.0 (http://creativecommons.org/licenses/by/4.0/)",
      "source": "https://sketchfab.com/3d-models/test-tube-rack-f09bcbfe529e4314a1acbf7b7d1e867f",
      "title": "Test Tube Rack"
    },
    "generator": "Sketchfab-10.93.0",
    "version": "2.0"
  },
  "bufferViews": [
    {
      "buffer": 0,
      "byteLength": 16296,
      "name": "floatBufferViews",
      "target": 34963
    },
    {
      "buffer": 0,
      "byteLength": 10352,
      "byteOffset": 16296,
      "byteStride": 8,
      "name": "floatBufferViews",
      "target": 34962
    },
    {
      "buffer": 0,
      "byteLength": 31056,
      "byteOffset": 26648,
      "byteStride": 12,
      "name": "floatBufferViews",
      "target": 34962
    },
    {
      "buffer": 0,
      "byteLength": 20704,
      "byteOffset": 57704,
      "byteStride": 16,
      "name": "floatBufferViews",
      "target": 34962
    }
  ],
  "buffers": [
    {
      "byteLength": 78408,
      "uri": "scene.bin"
    }
  ],
  "images": [
    {
      "uri": "textures/lambert1_baseColor.png"
    },
    {
      "uri": "textures/lambert1_metallicRoughness.png"
    },
    {
      "uri": "textures/lambert1_normal.png"
    }
  ],
  "materials": [
    {
      "alphaMode": "BLEND",
      "doubleSided": true,
      "name": "lambert1",
      "normalTexture": {
        "index": 2
      },
      "occlusionTexture": {
        "index": 1
      },
      "pbrMetallicRoughness": {
        "baseColorTexture": {
          "index": 0
        },
        "metallicRoughnessTexture": {
          "index": 1
        }
      }
    }
  ],
  "meshes": [
    {
      "name": "defaultMaterial",
      "primitives": [
        {
          "attributes": {
            "NORMAL": 1,
            "POSITION": 0,
            "TANGENT": 2,
            "TEXCOORD_0": 3
          },
          "indices": 4,
          "material": 0,
          "mode": 4
        }
      ]
    },
    {
      "name": "defaultMaterial",
      "primitives": [
        {
          "attributes": {
            "NORMAL": 6,
            "POSITION": 5,
            "TANGENT": 7,
            "TEXCOORD_0": 8
          },
          "indices": 9,
          "material": 0,
          "mode": 4
        }
      ]
    },
    {
      "name": "defaultMaterial",
      "primitives": [
        {
          "attributes": {
            "NORMAL": 11,
            "POSITION": 10,
            "TANGENT": 12,
            "TEXCOORD_0": 13
          },
          "indices": 14,
          "material": 0,
          "mode": 4
        }
      ]
    },
    {
      "name": "defaultMaterial",
      "primitives": [
        {
          "attributes": {
            "NORMAL": 16,
            "POSITION": 15,
            "TANGENT": 17,
            "TEXCOORD_0": 18
          },
          "indices": 19,
          "material": 0,
          "mode": 4
        }
      ]
    },
    {
      "name": "defaultMaterial",
      "primitives": [
        {
          "attributes": {
            "NORMAL": 21,
            "POSITION": 20,
            "TANGENT": 22,
            "TEXCOORD_0": 23
          },
          "indices": 24,
          "material": 0,
          "mode": 4
        }
      ]
    }
  ],
  "nodes": [
    {
      "children": [
        1
      ],
      "matrix": [
        1.0,
        0.0,
        0.0,
        0.0,
        0.0,
        2.220446049250313e-16,
        -1.0,
        0.0,
        0.0,
        1.0,
        2.220446049250313e-16,
        0.0,
        0.0,
        0.0,
        0.0,
        1.0
      ],
      "name": "Sketchfab_model"
    },
    {
      "children": [
        2,
        11
      ],
      "matrix": [
        1.0,
        0.0,
        0.0,
        0.0,
        0.0,
        -4.371139006309477e-08,
        0.999999999999999,
        0.0,
        0.0,
        -0.999999999999999,
        -4.371139006309477e-08,
        0.0,
        0.0,
        0.0,
        0.0,
        1.0
      ],
      "name": "Collada visual scene group"
    },
    {
      "children": [
        3,
        5,
        7,
        9
      ],
      "name": "rack_lp"
    },
    {
      "children": [
        4
      ],
      "name": "shelf_lp"
    },
    {
      "mesh": 0,
      "name": "defaultMaterial"
    },
    {
      "children": [
        6
      ],
      "name": "holder_lp"
    },
    {
      "mesh": 1,
      "name": "defaultMaterial"
    },
    {
      "children": [
        8
      ],
      "name": "rod_lp"
    },
    {
      "mesh": 2,
      "name": "defaultMaterial"
    },
    {
      "children": [
        10
      ],
      "name": "side_lp"
    },
    {
      "mesh": 3,
      "name": "defaultMaterial"
    },
    {
      "children": [
        12
      ],
      "matrix": [
        1.0,
        0.0,
        0.0,
        0.0,
        0.0,
        1.0,
        0.0,
        0.0,
        0.0,
        0.0,
        1.0,
        0.0,
        0.0,
        1.308068,
        0.0,
        1.0
      ],
      "name": "vial_lp"
    },
    {
      "mesh": 4,
      "name": "defaultMaterial"
    }
  ],
  "samplers": [
    {
      "magFilter": 9729,
      "minFilter": 9987,
      "wrapS": 10497,
      "wrapT": 10497
    }
  ],
  "scene": 0,
  "scenes": [
    {
      "name": "Sketchfab_Scene",
      "nodes": [
        0
      ]
    }
  ],
  "textures": [
    {
      "sampler": 0,
      "source": 0
    },
    {
      "sampler": 0,
      "source": 1
    },
    {
      "sampler": 0,
      "source": 2
    }
  ]
}
